<svg width="40" height="40" viewBox="0 0 40 40" fill="none" xmlns="http://www.w3.org/2000/svg">
<path d="M6 14C6 12.9391 6.42143 11.9217 7.17157 11.1716C7.92172 10.4214 8.93913 10 10 10H30C31.0609 10 32.0783 10.4214 32.8284 11.1716C33.5786 11.9217 34 12.9391 34 14V24C34 25.0609 33.5786 26.0783 32.8284 26.8284C32.0783 27.5786 31.0609 28 30 28H10C8.93913 28 7.92172 27.5786 7.17157 26.8284C6.42143 26.0783 6 25.0609 6 24V14ZM10 12C9.46957 12 8.96086 12.2107 8.58579 12.5858C8.21071 12.9609 8 13.4696 8 14V24C8 24.5304 8.21071 25.0391 8.58579 25.4142C8.96086 25.7893 9.46957 26 10 26H30C30.5304 26 31.0391 25.7893 31.4142 25.4142C31.7893 25.0391 32 24.5304 32 24V14C32 13.4696 31.7893 12.9609 31.4142 12.5858C31.0391 12.2107 30.5304 12 30 12H10Z" fill="black"/>
<path d="M4 31C4 30.7348 4.10536 30.4804 4.29289 30.2929C4.48043 30.1054 4.73478 30 5 30H35C35.2652 30 35.5196 30.1054 35.7071 30.2929C35.8946 30.4804 36 30.7348 36 31C36 31.2652 35.8946 31.5196 35.7071 31.7071C35.5196 31.8946 35.2652 32 35 32H5C4.73478 32 4.48043 31.8946 4.29289 31.7071C4.10536 31.5196 4 31.2652 4 31Z" fill="black"/>
</svg>
