<svg width="30" height="29" viewBox="0 0 30 29" fill="none" xmlns="http://www.w3.org/2000/svg">
<path d="M14.9987 8.91406C13.4658 8.91406 11.9956 9.50273 10.9117 10.5506C9.82771 11.5984 9.21875 13.0195 9.21875 14.5014C9.21875 15.9832 9.82771 17.4044 10.9117 18.4522C11.9956 19.5001 13.4658 20.0887 14.9987 20.0887C16.5317 20.0887 18.0019 19.5001 19.0858 18.4522C20.1698 17.4044 20.7787 15.9832 20.7787 14.5014C20.7787 13.0195 20.1698 11.5984 19.0858 10.5506C18.0019 9.50273 16.5317 8.91406 14.9987 8.91406ZM14.9987 18.13C14.0029 18.13 13.0478 17.7476 12.3436 17.0669C11.6394 16.3861 11.2437 15.4629 11.2437 14.5002C11.2437 13.5375 11.6394 12.6142 12.3436 11.9335C13.0478 11.2528 14.0029 10.8704 14.9987 10.8704C15.9946 10.8704 16.9497 11.2528 17.6539 11.9335C18.3581 12.6142 18.7537 13.5375 18.7537 14.5002C18.7537 15.4629 18.3581 16.3861 17.6539 17.0669C16.9497 17.7476 15.9946 18.13 14.9987 18.13Z" fill="black"/>
<path d="M21.0074 10.0109C21.7516 10.0109 22.3549 9.42774 22.3549 8.70834C22.3549 7.98895 21.7516 7.40576 21.0074 7.40576C20.2632 7.40576 19.6599 7.98895 19.6599 8.70834C19.6599 9.42774 20.2632 10.0109 21.0074 10.0109Z" fill="black"/>
<path d="M25.6662 7.38419C25.3768 6.66182 24.9346 6.00582 24.3679 5.45817C23.8011 4.91053 23.1223 4.48331 22.3749 4.20385C21.5004 3.88649 20.5764 3.71489 19.6424 3.69635C18.4387 3.6456 18.0574 3.6311 15.0049 3.6311C11.9524 3.6311 11.5612 3.6311 10.3674 3.69635C9.43418 3.71394 8.51089 3.88558 7.63744 4.20385C6.88986 4.48298 6.2109 4.91009 5.64411 5.45778C5.07732 6.00546 4.63523 6.66163 4.34619 7.38419C4.01782 8.22955 3.84071 9.12278 3.82244 10.0256C3.76869 11.188 3.75244 11.5566 3.75244 14.5085C3.75244 17.4593 3.75244 17.8351 3.82244 18.9914C3.84119 19.8953 4.01744 20.787 4.34619 21.6341C4.63604 22.3564 5.07856 23.0123 5.64549 23.5599C6.21241 24.1075 6.89127 24.5348 7.63869 24.8144C8.51048 25.1445 9.43416 25.3284 10.3699 25.3581C11.5737 25.4089 11.9549 25.4246 15.0074 25.4246C18.0599 25.4246 18.4512 25.4246 19.6449 25.3581C20.5788 25.3398 21.5027 25.1686 22.3774 24.8519C23.1246 24.5717 23.8032 24.1442 24.3699 23.5964C24.9366 23.0486 25.3789 22.3926 25.6687 21.6703C25.9974 20.8245 26.1737 19.9327 26.1924 19.0289C26.2462 17.8665 26.2624 17.4979 26.2624 14.546C26.2624 11.594 26.2624 11.2194 26.1924 10.0631C26.1779 9.14747 25.9999 8.2412 25.6662 7.38419ZM24.1437 18.902C24.1356 19.5984 24.0041 20.2883 23.7549 20.9417C23.5672 21.4116 23.2798 21.8383 22.9113 22.1943C22.5427 22.5504 22.1011 22.828 21.6149 23.0091C20.9465 23.2489 20.2404 23.376 19.5274 23.3849C18.3399 23.4381 18.0049 23.4514 14.9599 23.4514C11.9124 23.4514 11.6012 23.4514 10.3912 23.3849C9.6786 23.3765 8.97285 23.2494 8.30494 23.0091C7.81705 22.8291 7.37369 22.552 7.00355 22.1959C6.63341 21.8398 6.34474 21.4125 6.15619 20.9417C5.9105 20.2953 5.77908 19.6135 5.76744 18.925C5.71369 17.7771 5.70119 17.4532 5.70119 14.5097C5.70119 11.565 5.70119 11.2641 5.76744 10.0933C5.77552 9.3973 5.90701 8.70782 6.15619 8.05481C6.53744 7.10144 7.31869 6.35106 8.30494 5.98615C8.97318 5.74706 9.67872 5.61998 10.3912 5.61035C11.5799 5.5584 11.9137 5.54389 14.9599 5.54389C18.0062 5.54389 18.3187 5.5439 19.5274 5.61035C20.2405 5.61865 20.9466 5.74577 21.6149 5.98615C22.1011 6.16772 22.5426 6.44556 22.9112 6.80181C23.2797 7.15806 23.5671 7.58486 23.7549 8.05481C24.0006 8.70121 24.1321 9.38296 24.1437 10.0715C24.1974 11.2206 24.2112 11.5433 24.2112 14.488C24.2112 17.4315 24.2112 17.7481 24.1574 18.9032H24.1437V18.902Z" fill="black"/>
</svg>
