<svg width="40" height="40" viewBox="0 0 40 40" fill="none" xmlns="http://www.w3.org/2000/svg">
<path d="M4.99998 34.31L10.9766 28.3333H30C30.884 28.3333 31.7319 27.9821 32.357 27.357C32.9821 26.7319 33.3333 25.8841 33.3333 25V10C33.3333 9.11595 32.9821 8.2681 32.357 7.64298C31.7319 7.01786 30.884 6.66667 30 6.66667H8.33331C7.44926 6.66667 6.60141 7.01786 5.97629 7.64298C5.35117 8.2681 4.99998 9.11595 4.99998 10V34.31ZM4.99998 36.6667H3.33331V10C3.33331 8.67392 3.8601 7.40215 4.79778 6.46447C5.73546 5.52678 7.00723 5 8.33331 5H30C31.3261 5 32.5978 5.52678 33.5355 6.46447C34.4732 7.40215 35 8.67392 35 10V25C35 26.3261 34.4732 27.5979 33.5355 28.5355C32.5978 29.4732 31.3261 30 30 30H11.6666L4.99998 36.6667ZM9.99998 11.6667H28.3333V13.3333H9.99998V11.6667ZM9.99998 16.6667H28.3333V18.3333H9.99998V16.6667ZM9.99998 21.6667H23.3333V23.3333H9.99998V21.6667Z" fill="black"/>
</svg>
