<svg width="31" height="30" viewBox="0 0 31 30" fill="none" xmlns="http://www.w3.org/2000/svg">
<path d="M25.2553 3.74614C24.9443 3.76803 24.6391 3.83864 24.3515 3.9552H24.3476C24.0715 4.06114 22.7589 4.59551 20.7632 5.40551L13.6119 8.3202C8.48045 10.4108 3.43616 12.4696 3.43616 12.4696L3.49623 12.4471C3.49623 12.4471 3.14845 12.5577 2.78516 12.7986C2.56073 12.9368 2.36761 13.1177 2.21748 13.3302C2.03923 13.5833 1.89585 13.9705 1.94913 14.3708C2.03632 15.0477 2.4897 15.4536 2.8152 15.6777C3.14457 15.9046 3.45845 16.0105 3.45845 16.0105H3.4662L8.1966 17.5527C8.40876 18.2118 9.6381 22.123 9.93357 23.024C10.1079 23.5621 10.2775 23.8986 10.4896 24.1555C10.5923 24.2868 10.7124 24.3965 10.8568 24.4846C10.9318 24.5268 11.0118 24.5602 11.0951 24.584L11.0467 24.5727C11.0612 24.5765 11.0728 24.5877 11.0835 24.5915C11.1222 24.6018 11.1484 24.6055 11.1978 24.613C11.9466 24.8324 12.5482 24.3824 12.5482 24.3824L12.5821 24.3561L15.375 21.8952L20.056 25.3705L20.1626 25.4146C21.1381 25.829 22.1263 25.5983 22.6484 25.1915C23.1744 24.7818 23.3789 24.2577 23.3789 24.2577L23.4128 24.1733L27.0301 6.23989C27.1328 5.79739 27.1589 5.38301 27.0456 4.98083C26.9287 4.57379 26.6588 4.22371 26.289 3.99926C25.9784 3.81656 25.6183 3.72837 25.2553 3.74614ZM25.1575 5.66801C25.1536 5.72708 25.1652 5.72051 25.1381 5.83395V5.84426L21.5547 23.5911C21.5392 23.6165 21.513 23.6718 21.4414 23.7271C21.3658 23.7852 21.3057 23.8218 20.9909 23.7008L15.2656 19.453L11.8071 22.5036L12.5337 18.013L21.8879 9.57551C22.2735 9.22864 22.1447 9.15551 22.1447 9.15551C22.1718 8.72989 21.5624 9.03083 21.5624 9.03083L9.76695 16.1024L9.76307 16.0836L4.10945 14.2415V14.2377L4.09491 14.2349C4.10483 14.2317 4.11453 14.2279 4.12398 14.2236L4.15498 14.2086L4.18501 14.1983C4.18501 14.1983 9.23316 12.1396 14.3646 10.049C16.9338 9.00176 19.5223 7.94708 21.513 7.13333C23.5038 6.32426 24.9754 5.73083 25.0587 5.69895C25.1381 5.66895 25.1003 5.66895 25.1575 5.66895V5.66801Z" fill="black"/>
</svg>
