<svg width="40" height="40" viewBox="0 0 40 40" fill="none" xmlns="http://www.w3.org/2000/svg">
<path d="M7.69228 0C6.01228 0 4.61536 1.39692 4.61536 3.07692V32.3077C4.61536 33.9877 6.01228 35.3846 7.69228 35.3846H10.7692V40L15.3846 36.9231L20 40V28.9908C19.7876 29.1132 19.5614 29.2098 19.3261 29.2785C19.1615 29.6333 18.9281 29.952 18.6395 30.2161C18.3508 30.4802 18.0127 30.6844 17.6446 30.8169C17.3191 30.9232 16.9776 30.9721 16.6354 30.9615C16.2046 30.9615 15.7738 30.9062 15.3846 30.7215C14.9907 30.8935 14.5634 30.9755 14.1338 30.9615C13.7892 30.9615 13.4523 30.9354 13.1246 30.8169C12.3821 30.5469 11.7769 29.9937 11.4415 29.2785C11.2069 29.2094 10.9812 29.1128 10.7692 28.9908V32.3077H7.69228V3.07692H32.3077V32.3077H24.6154C24.2073 32.3077 23.816 32.4698 23.5275 32.7583C23.239 33.0468 23.0769 33.4381 23.0769 33.8462C23.0769 34.2542 23.239 34.6455 23.5275 34.934C23.816 35.2225 24.2073 35.3846 24.6154 35.3846H32.3077C33.9877 35.3846 35.3846 33.9877 35.3846 32.3077V3.07692C35.3846 1.39692 33.9877 0 32.3077 0H7.69228ZM12.02 7.69231C11.6119 7.73046 11.2358 7.92913 10.9742 8.24463C10.7127 8.56012 10.5872 8.96659 10.6254 9.37462C10.6635 9.78264 10.8622 10.1588 11.1777 10.4203C11.4932 10.6819 11.8996 10.8074 12.3077 10.7692H27.6923C28.1003 10.7692 28.4916 10.6071 28.7801 10.3186C29.0687 10.0301 29.2307 9.63879 29.2307 9.23077C29.2307 8.82274 29.0687 8.43143 28.7801 8.14291C28.4916 7.8544 28.1003 7.69231 27.6923 7.69231H12.3077C12.2595 7.69004 12.2112 7.69004 12.163 7.69231C12.1154 7.69009 12.0676 7.69009 12.02 7.69231ZM12.02 13.8462C11.6119 13.8843 11.2358 14.083 10.9742 14.3985C10.7127 14.714 10.5872 15.1204 10.6254 15.5285C10.6635 15.9365 10.8622 16.3126 11.1777 16.5742C11.4932 16.8357 11.8996 16.9612 12.3077 16.9231H23.0769C23.4849 16.9231 23.8762 16.761 24.1647 16.4725C24.4533 16.184 24.6154 15.7926 24.6154 15.3846C24.6154 14.9766 24.4533 14.5853 24.1647 14.2968C23.8762 14.0082 23.4849 13.8462 23.0769 13.8462H12.3077C12.2595 13.8439 12.2112 13.8439 12.163 13.8462C12.1154 13.8439 12.0676 13.8439 12.02 13.8462ZM15.3846 19.4708C15.0757 19.4711 14.7747 19.5688 14.5244 19.75C14.2742 19.9311 14.0875 20.1866 13.9907 20.48C13.9277 20.5015 13.8584 20.5046 13.7984 20.5292C13.5384 20.373 13.2357 20.3028 12.9335 20.3288C12.6312 20.3548 12.3449 20.4755 12.1154 20.6738C11.883 20.8679 11.7165 21.1293 11.6391 21.4219C11.5617 21.7146 11.577 22.0241 11.683 22.3077C11.6415 22.3708 11.6246 22.4338 11.5861 22.5C11.2856 22.5501 11.0082 22.6928 10.7928 22.9082C10.5774 23.1236 10.4346 23.401 10.3846 23.7015C10.3352 23.9942 10.3781 24.2949 10.5074 24.5621C10.6367 24.8292 10.846 25.0495 11.1061 25.1923C11.1169 25.2892 11.0861 25.3877 11.1061 25.4815C10.9204 25.7077 10.8072 25.9846 10.7814 26.2761C10.7556 26.5676 10.8184 26.8601 10.9615 27.1154C11.26 27.6338 11.8538 27.9231 12.4523 27.8369C12.5292 27.9092 12.6077 27.9631 12.6923 28.0292C12.7077 28.6246 13.0877 29.1677 13.6538 29.3754C14.2138 29.58 14.8477 29.3831 15.24 28.9415C15.2969 28.9446 15.3261 28.9908 15.3846 28.9908C15.4477 28.9908 15.5138 28.9446 15.5769 28.9415C15.7097 29.0915 15.8726 29.2119 16.0549 29.2948C16.2373 29.3778 16.435 29.4215 16.6354 29.4231C16.8015 29.4231 16.9523 29.4338 17.1154 29.3754C17.392 29.2731 17.6316 29.0901 17.8031 28.8501C17.9745 28.6101 18.0699 28.3241 18.0769 28.0292C18.1584 27.9646 18.2384 27.9092 18.3169 27.8369C18.6089 27.8784 18.9067 27.8319 19.1722 27.7034C19.4378 27.5748 19.659 27.3701 19.8077 27.1154C19.9511 26.86 20.0141 26.5672 19.9883 26.2753C19.9625 25.9835 19.8491 25.7063 19.663 25.48C19.6846 25.3877 19.6492 25.2862 19.663 25.1923C19.9242 25.0505 20.1342 24.8304 20.2637 24.563C20.3931 24.2956 20.4354 23.9943 20.3846 23.7015C20.3347 23.4009 20.1921 23.1234 19.9766 22.908C19.7612 22.6925 19.4837 22.5498 19.183 22.5C19.1461 22.4323 19.1277 22.3723 19.0861 22.3077C19.193 22.024 19.2088 21.714 19.1313 21.4209C19.0538 21.1278 18.8869 20.8662 18.6538 20.6723C18.4242 20.474 18.1378 20.3534 17.8355 20.3277C17.5332 20.302 17.2305 20.3725 16.9707 20.5292C16.9092 20.5046 16.8415 20.5015 16.7784 20.4815C16.682 20.1878 16.4953 19.9321 16.2451 19.7506C15.9948 19.5691 15.6937 19.4712 15.3846 19.4708ZM15.3846 22.1631C16.7477 22.1631 17.8369 23.2523 17.8369 24.6154C17.8369 25.9815 16.7492 27.0677 15.3846 27.0677C15.062 27.0695 14.7423 27.0074 14.444 26.8848C14.1456 26.7622 13.8745 26.5816 13.6464 26.3535C13.4184 26.1254 13.2378 25.8544 13.1152 25.556C12.9926 25.2577 12.9304 24.9379 12.9323 24.6154C12.9323 23.2508 14.0215 22.1631 15.3846 22.1631Z" fill="black"/>
</svg>
